{"asset":{"version":"2.0","generator":"Blockbench 4.12.1 glTF exporter"},"scenes":[{"nodes":[11],"name":"blockbench_export"}],"scene":0,"nodes":[{"name":"chest","mesh":0},{"translation":[0,0.46875,0.5125],"name":"bottomHinge1","mesh":1},{"translation":[0.31250000000000033,0.20625,-0.53125],"name":"frontLatch1","mesh":2},{"translation":[0,0.46875,0.5125],"name":"bottomHinge2","mesh":3},{"translation":[0.4375,0.26250000000000007,0.51875],"name":"midHinge1","mesh":4},{"translation":[-0.4375,0.26250000000000007,0.51875],"name":"midHinge2","mesh":5},{"translation":[-0.31249999999999967,0.20625,-0.53125],"name":"frontLatch2","mesh":6},{"rotation":[-1,0,0,6.123233995736766e-17],"translation":[0.062499999999999986,0.03749999999999998,-0.5187500000000002],"name":"lid","mesh":7},{"translation":[-0.375,-0.15978803463669478,-0.041418774478323594],"name":"hinge3","mesh":8},{"translation":[-0.375,-0.15978803463669478,-0.041418774478323594],"name":"hinge4","mesh":9},{"translation":[-0.0625,0.5125000000000002,0.5187500000000002],"name":"bone","children":[7,8,9]},{"children":[0,1,2,3,4,5,6,10]}],"bufferViews":[{"buffer":0,"byteOffset":0,"byteLength":672,"target":34962,"byteStride":12},{"buffer":0,"byteOffset":672,"byteLength":672,"target":34962,"byteStride":12},{"buffer":0,"byteOffset":1344,"byteLength":448,"target":34962,"byteStride":8},{"buffer":0,"byteOffset":1792,"byteLength":168,"target":34963},{"buffer":0,"byteOffset":1960,"byteLength":288,"target":34962,"byteStride":12},{"buffer":0,"byteOffset":2248,"byteLength":288,"target":34962,"byteStride":12},{"buffer":0,"byteOffset":2536,"byteLength":192,"target":34962,"byteStride":8},{"buffer":0,"byteOffset":2728,"byteLength":72,"target":34963},{"buffer":0,"byteOffset":2800,"byteLength":288,"target":34962,"byteStride":12},{"buffer":0,"byteOffset":3088,"byteLength":288,"target":34962,"byteStride":12},{"buffer":0,"byteOffset":3376,"byteLength":192,"target":34962,"byteStride":8},{"buffer":0,"byteOffset":3568,"byteLength":72,"target":34963},{"buffer":0,"byteOffset":3640,"byteLength":288,"target":34962,"byteStride":12},{"buffer":0,"byteOffset":3928,"byteLength":288,"target":34962,"byteStride":12},{"buffer":0,"byteOffset":4216,"byteLength":192,"target":34962,"byteStride":8},{"buffer":0,"byteOffset":4408,"byteLength":72,"target":34963},{"buffer":0,"byteOffset":4480,"byteLength":288,"target":34962,"byteStride":12},{"buffer":0,"byteOffset":4768,"byteLength":288,"target":34962,"byteStride":12},{"buffer":0,"byteOffset":5056,"byteLength":192,"target":34962,"byteStride":8},{"buffer":0,"byteOffset":5248,"byteLength":72,"target":34963},{"buffer":0,"byteOffset":5320,"byteLength":288,"target":34962,"byteStride":12},{"buffer":0,"byteOffset":5608,"byteLength":288,"target":34962,"byteStride":12},{"buffer":0,"byteOffset":5896,"byteLength":192,"target":34962,"byteStride":8},{"buffer":0,"byteOffset":6088,"byteLength":72,"target":34963},{"buffer":0,"byteOffset":6160,"byteLength":288,"target":34962,"byteStride":12},{"buffer":0,"byteOffset":6448,"byteLength":288,"target":34962,"byteStride":12},{"buffer":0,"byteOffset":6736,"byteLength":192,"target":34962,"byteStride":8},{"buffer":0,"byteOffset":6928,"byteLength":72,"target":34963},{"buffer":0,"byteOffset":7000,"byteLength":624,"target":34962,"byteStride":12},{"buffer":0,"byteOffset":7624,"byteLength":624,"target":34962,"byteStride":12},{"buffer":0,"byteOffset":8248,"byteLength":416,"target":34962,"byteStride":8},{"buffer":0,"byteOffset":8664,"byteLength":156,"target":34963},{"buffer":0,"byteOffset":8820,"byteLength":288,"target":34962,"byteStride":12},{"buffer":0,"byteOffset":9108,"byteLength":288,"target":34962,"byteStride":12},{"buffer":0,"byteOffset":9396,"byteLength":192,"target":34962,"byteStride":8},{"buffer":0,"byteOffset":9588,"byteLength":72,"target":34963},{"buffer":0,"byteOffset":9660,"byteLength":288,"target":34962,"byteStride":12},{"buffer":0,"byteOffset":9948,"byteLength":288,"target":34962,"byteStride":12},{"buffer":0,"byteOffset":10236,"byteLength":192,"target":34962,"byteStride":8},{"buffer":0,"byteOffset":10428,"byteLength":72,"target":34963},{"buffer":0,"byteOffset":10500,"byteLength":12},{"buffer":0,"byteOffset":10512,"byteLength":48}],"buffers":[{"byteLength":10560,"uri":"data:application/octet-stream;base64,"}],"accessors":[{"bufferView":0,"componentType":5126,"count":56,"max":[0.9375,0.5,0.5],"min":[-0.9375,0,-0.5],"type":"VEC3"},{"bufferView":1,"componentType":5126,"count":56,"max":[1,1,1],"min":[-1,-1,-1],"type":"VEC3"},{"bufferView":2,"componentType":5126,"count":56,"max":[0.46875,0.4375],"min":[0,0],"type":"VEC2"},{"bufferView":3,"componentType":5123,"count":84,"max":[55],"min":[0],"type":"SCALAR"},{"bufferView":4,"componentType":5126,"count":24,"max":[-0.3375000059604645,0.03125,0.012500000186264515],"min":[-0.5375000238418579,-0.03125,-0.012500000186264515],"type":"VEC3"},{"bufferView":5,"componentType":5126,"count":24,"max":[1,1,1],"min":[-1,-1,-1],"type":"VEC3"},{"bufferView":6,"componentType":5126,"count":24,"max":[0.34375,0.375],"min":[0,0.109375],"type":"VEC2"},{"bufferView":7,"componentType":5123,"count":36,"max":[23],"min":[0],"type":"SCALAR"},{"bufferView":8,"componentType":5126,"count":24,"max":[0.0625,0.375,0.03125],"min":[-0.0625,0.125,-0.03125],"type":"VEC3"},{"bufferView":9,"componentType":5126,"count":24,"max":[1,1,1],"min":[-1,-1,-1],"type":"VEC3"},{"bufferView":10,"componentType":5126,"count":24,"max":[0.3828125,0.2421875],"min":[0.203125,0.046875],"type":"VEC2"},{"bufferView":11,"componentType":5123,"count":36,"max":[23],"min":[0],"type":"SCALAR"},{"bufferView":12,"componentType":5126,"count":24,"max":[0.5375000238418579,0.03125,0.012500000186264515],"min":[0.3375000059604645,-0.03125,-0.012500000186264515],"type":"VEC3"},{"bufferView":13,"componentType":5126,"count":24,"max":[1,1,1],"min":[-1,-1,-1],"type":"VEC3"},{"bufferView":14,"componentType":5126,"count":24,"max":[0.4140625,0.375],"min":[0.203125,0.015625],"type":"VEC2"},{"bufferView":15,"componentType":5123,"count":36,"max":[23],"min":[0],"type":"SCALAR"},{"bufferView":16,"componentType":5126,"count":24,"max":[0.10000000149011612,0.26249998807907104,0.012500000186264515],"min":[-0.10000000149011612,0.23749999701976776,-0.012500000186264515],"type":"VEC3"},{"bufferView":17,"componentType":5126,"count":24,"max":[1,1,1],"min":[-1,-1,-1],"type":"VEC3"},{"bufferView":18,"componentType":5126,"count":24,"max":[0.421875,0.4140625],"min":[0.34375,0.0625],"type":"VEC2"},{"bufferView":19,"componentType":5123,"count":36,"max":[23],"min":[0],"type":"SCALAR"},{"bufferView":20,"componentType":5126,"count":24,"max":[0.10000000149011612,0.26249998807907104,0.012500000186264515],"min":[-0.10000000149011612,0.23749999701976776,-0.012500000186264515],"type":"VEC3"},{"bufferView":21,"componentType":5126,"count":24,"max":[1,1,1],"min":[-1,-1,-1],"type":"VEC3"},{"bufferView":22,"componentType":5126,"count":24,"max":[0.4375,0.4140625],"min":[0.3671875,0.015625],"type":"VEC2"},{"bufferView":23,"componentType":5123,"count":36,"max":[23],"min":[0],"type":"SCALAR"},{"bufferView":24,"componentType":5126,"count":24,"max":[0.0625,0.375,0.03125],"min":[-0.0625,0.125,-0.03125],"type":"VEC3"},{"bufferView":25,"componentType":5126,"count":24,"max":[1,1,1],"min":[-1,-1,-1],"type":"VEC3"},{"bufferView":26,"componentType":5126,"count":24,"max":[0.390625,0.3671875],"min":[0.203125,0.015625],"type":"VEC2"},{"bufferView":27,"componentType":5123,"count":36,"max":[23],"min":[0],"type":"SCALAR"},{"bufferView":28,"componentType":5126,"count":52,"max":[0.9375,0.03125,0.5],"min":[-0.9375,-0.03125,-0.5],"type":"VEC3"},{"bufferView":29,"componentType":5126,"count":52,"max":[1,1,1],"min":[-1,-1,-1],"type":"VEC3"},{"bufferView":30,"componentType":5126,"count":52,"max":[0.578125,0.40625],"min":[0.234375,0],"type":"VEC2"},{"bufferView":31,"componentType":5123,"count":78,"max":[51],"min":[0],"type":"SCALAR"},{"bufferView":32,"componentType":5126,"count":24,"max":[0.10000000149011612,0.23125000298023224,0.05000000074505806],"min":[-0.10000000149011612,0.16875000298023224,0.02500000037252903],"type":"VEC3"},{"bufferView":33,"componentType":5126,"count":24,"max":[1,1,1],"min":[-1,-1,-1],"type":"VEC3"},{"bufferView":34,"componentType":5126,"count":24,"max":[0.421875,0.0625],"min":[0.390625,0.03125],"type":"VEC2"},{"bufferView":35,"componentType":5123,"count":36,"max":[23],"min":[0],"type":"SCALAR"},{"bufferView":36,"componentType":5126,"count":24,"max":[0.9750000238418579,0.23125000298023224,0.05000000074505806],"min":[0.7749999761581421,0.16875000298023224,0.02500000037252903],"type":"VEC3"},{"bufferView":37,"componentType":5126,"count":24,"max":[1,1,1],"min":[-1,-1,-1],"type":"VEC3"},{"bufferView":38,"componentType":5126,"count":24,"max":[0.421875,0.09375],"min":[0.390625,0.046875],"type":"VEC2"},{"bufferView":39,"componentType":5123,"count":36,"max":[23],"min":[0],"type":"SCALAR"},{"bufferView":40,"componentType":5126,"count":3,"max":[3],"min":[0],"type":"SCALAR"},{"bufferView":41,"componentType":5126,"count":3,"max":[0.8433914184570312,0,0,1],"min":[0,0,0,0.537299633026123],"type":"VEC4"}],"materials":[{"pbrMetallicRoughness":{"metallicFactor":0,"roughnessFactor":1,"baseColorTexture":{"index":0}},"alphaMode":"MASK","alphaCutoff":0.05,"doubleSided":true}],"textures":[{"sampler":0,"source":0,"name":"Chest Texture"}],"samplers":[{"magFilter":9728,"minFilter":9728,"wrapS":33071,"wrapT":33071}],"images":[{"mimeType":"image/png","uri":"data:image/png;base64,"}],"meshes":[{"primitives":[{"mode":4,"attributes":{"POSITION":0,"NORMAL":1,"TEXCOORD_0":2},"indices":3,"material":0}]},{"primitives":[{"mode":4,"attributes":{"POSITION":4,"NORMAL":5,"TEXCOORD_0":6},"indices":7,"material":0}]},{"primitives":[{"mode":4,"attributes":{"POSITION":8,"NORMAL":9,"TEXCOORD_0":10},"indices":11,"material":0}]},{"primitives":[{"mode":4,"attributes":{"POSITION":12,"NORMAL":13,"TEXCOORD_0":14},"indices":15,"material":0}]},{"primitives":[{"mode":4,"attributes":{"POSITION":16,"NORMAL":17,"TEXCOORD_0":18},"indices":19,"material":0}]},{"primitives":[{"mode":4,"attributes":{"POSITION":20,"NORMAL":21,"TEXCOORD_0":22},"indices":23,"material":0}]},{"primitives":[{"mode":4,"attributes":{"POSITION":24,"NORMAL":25,"TEXCOORD_0":26},"indices":27,"material":0}]},{"primitives":[{"mode":4,"attributes":{"POSITION":28,"NORMAL":29,"TEXCOORD_0":30},"indices":31,"material":0}]},{"primitives":[{"mode":4,"attributes":{"POSITION":32,"NORMAL":33,"TEXCOORD_0":34},"indices":35,"material":0}]},{"primitives":[{"mode":4,"attributes":{"POSITION":36,"NORMAL":37,"TEXCOORD_0":38},"indices":39,"material":0}]}],"animations":[{"name":"Opening","samplers":[{"input":40,"output":41,"interpolation":"LINEAR"}],"channels":[{"sampler":0,"target":{"node":10,"path":"rotation"}}]}]}